<?xml version="1.0" encoding="utf-8" standalone="no"?>
<!DOCTYPE svg PUBLIC "-//W3C//DTD SVG 1.1//EN"
  "http://www.w3.org/Graphics/SVG/1.1/DTD/svg11.dtd">
<!-- Created with matplotlib (http://matplotlib.org/) -->
<svg height="432pt" version="1.1" viewBox="0 0 576 432" width="576pt" xmlns="http://www.w3.org/2000/svg" xmlns:xlink="http://www.w3.org/1999/xlink">
 <defs>
  <style type="text/css">
*{stroke-linecap:butt;stroke-linejoin:round;stroke-miterlimit:100000;}
  </style>
 </defs>
 <g id="figure_1">
  <g id="patch_1">
   <path d="M 0 432 
L 576 432 
L 576 0 
L 0 0 
L 0 432 
z
" style="fill:none;"/>
  </g>
  <g id="axes_1">
   <g id="patch_2">
    <path d="M 72 388.8 
L 518.4 388.8 
L 518.4 43.2 
L 72 43.2 
L 72 388.8 
z
" style="fill:none;opacity:0;"/>
   </g>
   <g id="patch_3">
    <path d="M 518.4 216 
L 496.08 221.184 
L 502.776 216.072 
L 72 216.072 
L 72 215.928 
L 502.776 215.928 
L 496.08 210.816 
z
" style="stroke:#000000;stroke-linejoin:miter;stroke-width:2.0;"/>
   </g>
   <g id="patch_4">
    <path d="M 295.2 43.2 
L 300.384 65.52 
L 295.2372 58.824 
L 295.2372 388.8 
L 295.1628 388.8 
L 295.1628 58.824 
L 290.016 65.52 
z
" style="stroke:#000000;stroke-linejoin:miter;stroke-width:2.0;"/>
   </g>
   <g id="line2d_1">
    <path clip-path="url(#p5f4042712c)" d="M 71.4048 359.29916 
L 90.4512 358.832461 
L 105.9264 358.233838 
L 118.4256 357.534578 
L 129.1392 356.721093 
L 138.6624 355.778485 
L 146.9952 354.737951 
L 154.7328 353.54855 
L 161.8752 352.219859 
L 168.4224 350.770643 
L 174.3744 349.22914 
L 179.7312 347.632543 
L 185.088 345.81139 
L 190.4448 343.737888 
L 195.2064 341.65867 
L 199.968 339.333828 
L 204.7296 336.739721 
L 208.896 334.229743 
L 213.0624 331.478098 
L 217.2288 328.467972 
L 221.3952 325.182793 
L 225.5616 321.606583 
L 229.728 317.724382 
L 233.8944 313.522722 
L 238.0608 308.990157 
L 242.2272 304.117841 
L 246.3936 298.900119 
L 250.56 293.335138 
L 254.7264 287.425417 
L 259.488 280.25908 
L 264.2496 272.671964 
L 269.6064 263.670298 
L 274.9632 254.229819 
L 281.5104 242.200978 
L 289.8432 226.350121 
L 310.08 187.577954 
L 316.6272 175.637811 
L 321.984 166.289179 
L 327.3408 157.393241 
L 332.1024 149.90896 
L 336.864 142.85125 
L 341.0304 137.039492 
L 345.1968 131.573673 
L 349.3632 126.455005 
L 353.5296 121.680488 
L 357.696 117.243495 
L 361.8624 113.134375 
L 366.0288 109.34105 
L 370.1952 105.849571 
L 374.3616 102.644642 
L 378.528 99.710076 
L 382.6944 97.029197 
L 386.8608 94.58518 
L 391.6224 92.060659 
L 396.384 89.799398 
L 401.1456 87.77802 
L 406.5024 85.763116 
L 411.8592 83.994185 
L 417.8112 82.284096 
L 423.7632 80.810044 
L 430.3104 79.424916 
L 437.4528 78.155557 
L 445.1904 77.019735 
L 453.5232 76.026434 
L 463.0464 75.126905 
L 473.76 74.35082 
L 486.2592 73.683873 
L 500.544 73.149081 
L 518.4 72.712115 
L 518.9952 72.70084 
L 518.9952 72.70084 
" style="fill:none;stroke:#000000;stroke-linecap:square;stroke-width:1.8;"/>
   </g>
   <g id="line2d_2">
    <path clip-path="url(#p5f4042712c)" d="M 71.4048 432.576 
L 518.9952 -0.576 
L 518.9952 -0.576 
" style="fill:none;stroke:#5b7be6;stroke-linecap:square;stroke-width:1.8;"/>
   </g>
   <g id="line2d_3">
    <path clip-path="url(#p5f4042712c)" d="M 239.141667 433 
L 351.258333 -1 
L 351.258333 -1 
" style="fill:none;stroke:#5b7be6;stroke-linecap:square;stroke-width:1.8;"/>
   </g>
   <g id="matplotlib.axis_1"/>
   <g id="matplotlib.axis_2"/>
   <g id="text_1">
    <!-- x -->
    <defs>
     <path d="M 29.109375 31.6875 
L 39.984375 46.6875 
L 33.015625 46.6875 
L 33.015625 51.90625 
L 52.984375 51.90625 
L 52.984375 46.6875 
L 46.09375 46.6875 
L 32.171875 27.484375 
L 48.390625 5.171875 
L 55.171875 5.171875 
L 55.171875 0 
L 31.203125 0 
L 31.203125 5.171875 
L 37.796875 5.171875 
L 26.515625 20.703125 
L 15.1875 5.171875 
L 21.921875 5.171875 
L 21.921875 0 
L 2.203125 0 
L 2.203125 5.171875 
L 9.078125 5.171875 
L 23.390625 24.90625 
L 7.625 46.6875 
L 1.21875 46.6875 
L 1.21875 51.90625 
L 24.421875 51.90625 
L 24.421875 46.6875 
L 18.21875 46.6875 
z
" id="BitstreamVeraSerif-Roman-78"/>
    </defs>
    <g transform="translate(489.6 246.24)scale(0.25 -0.25)">
     <use xlink:href="#BitstreamVeraSerif-Roman-78"/>
    </g>
   </g>
   <g id="text_2">
    <!-- M -->
    <defs>
     <path d="M 5.515625 0 
L 5.515625 5.171875 
L 14.796875 5.171875 
L 14.796875 67.671875 
L 4.984375 67.671875 
L 4.984375 72.90625 
L 26.21875 72.90625 
L 51.8125 21 
L 77.390625 72.90625 
L 97.3125 72.90625 
L 97.3125 67.671875 
L 87.59375 67.671875 
L 87.59375 5.171875 
L 96.921875 5.171875 
L 96.921875 0 
L 68.40625 0 
L 68.40625 5.171875 
L 77.6875 5.171875 
L 77.6875 61.53125 
L 52.6875 10.6875 
L 45.796875 10.6875 
L 20.796875 61.53125 
L 20.796875 5.171875 
L 30.078125 5.171875 
L 30.078125 0 
z
" id="BitstreamVeraSerif-Roman-4d"/>
    </defs>
    <g transform="translate(259.2 51.84)scale(0.25 -0.25)">
     <use xlink:href="#BitstreamVeraSerif-Roman-4d"/>
    </g>
   </g>
   <g id="text_3">
    <!-- $ T&gt;T_C $ -->
    <defs>
     <path d="M 8.296875 -2 
Q 8.296875 -0.734375 9.625 -0.09375 
L 62.703125 25 
L 9.28125 50.296875 
Q 8.296875 50.59375 8.296875 52 
Q 8.296875 52.6875 8.859375 53.34375 
Q 9.421875 54 10.296875 54 
Q 10.5 54 11.078125 53.8125 
L 68.5 26.703125 
Q 69.390625 26.265625 69.390625 25 
Q 69.390625 23.6875 68.21875 23.1875 
L 11.078125 -3.8125 
Q 10.5 -4 10.296875 -4 
Q 9.421875 -4 8.859375 -3.34375 
Q 8.296875 -2.6875 8.296875 -2 
" id="Cmmi10-3e"/>
     <path d="M 4.59375 1.3125 
Q 4.640625 1.5625 4.8125 2.1875 
Q 4.984375 2.828125 5.25 3.171875 
Q 5.515625 3.515625 6 3.515625 
Q 14.59375 3.515625 17.390625 4 
Q 20.0625 4.6875 20.609375 6.890625 
L 34.28125 61.8125 
Q 34.71875 63.03125 34.71875 64.015625 
Q 34.71875 64.796875 31.203125 64.796875 
L 25.390625 64.796875 
Q 18.703125 64.796875 15.0625 62.734375 
Q 11.421875 60.6875 9.71875 57.3125 
Q 8.015625 53.953125 5.328125 46.296875 
Q 4.984375 45.40625 4.296875 45.40625 
L 3.421875 45.40625 
Q 2.390625 45.40625 2.390625 46.6875 
L 9.515625 67.390625 
Q 9.71875 68.3125 10.5 68.3125 
L 69.578125 68.3125 
Q 70.609375 68.3125 70.609375 67 
L 67.28125 46.296875 
Q 67.28125 46 66.9375 45.703125 
Q 66.609375 45.40625 66.3125 45.40625 
L 65.375 45.40625 
Q 64.40625 45.40625 64.40625 46.6875 
Q 65.484375 53.765625 65.484375 56.6875 
Q 65.484375 60.203125 64.015625 62 
Q 62.546875 63.8125 60.203125 64.296875 
Q 57.859375 64.796875 54.109375 64.796875 
L 48.1875 64.796875 
Q 45.515625 64.796875 44.578125 64.296875 
Q 43.65625 63.8125 43.015625 61.375 
L 29.296875 6.5 
Q 29.25 6.296875 29.21875 6.09375 
Q 29.203125 5.90625 29.109375 5.609375 
Q 29.109375 4.34375 30.609375 4 
Q 33.203125 3.515625 41.703125 3.515625 
Q 42.671875 3.515625 42.671875 2.203125 
Q 42.328125 0.78125 42.125 0.390625 
Q 41.9375 0 41.015625 0 
L 5.609375 0 
Q 4.59375 0 4.59375 1.3125 
" id="Cmmi10-54"/>
     <path d="M 14.59375 21.578125 
Q 14.59375 15.578125 16.90625 11.015625 
Q 19.234375 6.453125 23.65625 3.875 
Q 28.078125 1.3125 34.078125 1.3125 
Q 40.375 1.3125 46.203125 4.53125 
Q 52.046875 7.765625 56.171875 13.15625 
Q 60.296875 18.5625 61.8125 24.609375 
Q 62.015625 25.203125 62.59375 25.203125 
L 63.8125 25.203125 
Q 64.203125 25.203125 64.453125 24.921875 
Q 64.703125 24.65625 64.703125 24.3125 
Q 64.703125 24.21875 64.59375 24.03125 
Q 62.890625 17.09375 57.984375 11.015625 
Q 53.078125 4.9375 46.234375 1.359375 
Q 39.40625 -2.203125 32.171875 -2.203125 
Q 24.359375 -2.203125 18.15625 1.3125 
Q 11.96875 4.828125 8.515625 11.078125 
Q 5.078125 17.328125 5.078125 25.203125 
Q 5.078125 33.59375 8.828125 41.8125 
Q 12.59375 50.046875 18.9375 56.46875 
Q 25.296875 62.890625 33.421875 66.703125 
Q 41.546875 70.515625 49.90625 70.515625 
Q 53.21875 70.515625 56.25 69.5 
Q 59.28125 68.5 61.859375 66.453125 
Q 64.453125 64.40625 66.109375 61.71875 
L 74.03125 70.3125 
Q 74.03125 70.515625 74.515625 70.515625 
L 75.09375 70.515625 
Q 75.484375 70.515625 75.734375 70.171875 
Q 75.984375 69.828125 75.984375 69.484375 
L 69.1875 42.484375 
Q 69.1875 41.796875 68.40625 41.796875 
L 66.609375 41.796875 
Q 65.828125 41.796875 65.828125 42.921875 
Q 66.21875 45.125 66.21875 48.1875 
Q 66.21875 53.078125 64.546875 57.390625 
Q 62.890625 61.71875 59.390625 64.359375 
Q 55.90625 67 50.875 67 
Q 42.71875 67 35.9375 62.890625 
Q 29.15625 58.796875 24.4375 52.125 
Q 19.734375 45.453125 17.15625 37.328125 
Q 14.59375 29.203125 14.59375 21.578125 
" id="Cmmi10-43"/>
    </defs>
    <g transform="translate(345.6 51.84)scale(0.2 -0.2)">
     <use transform="translate(0.0 0.6875)" xlink:href="#Cmmi10-54"/>
     <use transform="translate(75.95703125 0.6875)" xlink:href="#Cmmi10-3e"/>
     <use transform="translate(171.201171875 0.6875)" xlink:href="#Cmmi10-54"/>
     <use transform="translate(229.599609375 -16.318749999999994)scale(0.7)" xlink:href="#Cmmi10-43"/>
    </g>
   </g>
   <g id="text_4">
    <!-- $ T&lt;T_C $ -->
    <defs>
     <path d="M 9.28125 23.296875 
Q 8.296875 23.734375 8.296875 25 
Q 8.296875 26.265625 9.625 26.90625 
L 66.703125 53.8125 
Q 67.09375 54 67.390625 54 
Q 68.265625 54 68.828125 53.390625 
Q 69.390625 52.78125 69.390625 52 
Q 69.390625 50.78125 68.21875 50.09375 
L 14.984375 25 
L 68.5 -0.296875 
Q 69.390625 -0.59375 69.390625 -2 
Q 69.390625 -2.78125 68.828125 -3.390625 
Q 68.265625 -4 67.390625 -4 
Q 67.09375 -4 66.703125 -3.8125 
z
" id="Cmmi10-3c"/>
    </defs>
    <g transform="translate(478.08 51.84)scale(0.2 -0.2)">
     <use transform="translate(0.0 0.6875)" xlink:href="#Cmmi10-54"/>
     <use transform="translate(75.95703125 0.6875)" xlink:href="#Cmmi10-3c"/>
     <use transform="translate(171.201171875 0.6875)" xlink:href="#Cmmi10-54"/>
     <use transform="translate(229.599609375 -16.318749999999994)scale(0.7)" xlink:href="#Cmmi10-43"/>
    </g>
   </g>
  </g>
 </g>
 <defs>
  <clipPath id="p5f4042712c">
   <rect height="345.6" width="446.4" x="72.0" y="43.2"/>
  </clipPath>
 </defs>
</svg>
