<?xml version="1.0" encoding="UTF-8" standalone="no"?>
<!-- Created with Inkscape (http://www.inkscape.org/) -->

<svg
   xmlns:dc="http://purl.org/dc/elements/1.1/"
   xmlns:cc="http://creativecommons.org/ns#"
   xmlns:rdf="http://www.w3.org/1999/02/22-rdf-syntax-ns#"
   xmlns:svg="http://www.w3.org/2000/svg"
   xmlns="http://www.w3.org/2000/svg"
   xmlns:sodipodi="http://sodipodi.sourceforge.net/DTD/sodipodi-0.dtd"
   xmlns:inkscape="http://www.inkscape.org/namespaces/inkscape"
   inkscape:version="0.91 r13725"
   version="1.1"
   id="svg2"
   viewBox="0 0 566.92914 354.33071"
   height="100mm"
   width="160mm"
   sodipodi:docname="sc_meissner.svg">
  <sodipodi:namedview
     inkscape:snap-page="true"
     inkscape:window-maximized="1"
     inkscape:window-y="0"
     inkscape:window-x="0"
     inkscape:window-height="1085"
     inkscape:window-width="2048"
     showgrid="false"
     inkscape:current-layer="layer1"
     inkscape:document-units="px"
     inkscape:cy="189.51716"
     inkscape:cx="275.44527"
     inkscape:zoom="1.4"
     inkscape:pageshadow="2"
     inkscape:pageopacity="0.0"
     borderopacity="1.0"
     bordercolor="#666666"
     pagecolor="#ffffff"
     id="base" />
  <defs
     id="defs4">
    <marker
       inkscape:stockid="Arrow1Mend"
       orient="auto"
       refY="0.0"
       refX="0.0"
       id="Arrow1Mend"
       style="overflow:visible;"
       inkscape:isstock="true">
      <path
         id="path5723"
         d="M 0.0,0.0 L 5.0,-5.0 L -12.5,0.0 L 5.0,5.0 L 0.0,0.0 z "
         style="fill-rule:evenodd;stroke:#000000;stroke-width:1pt;stroke-opacity:1;fill:#000000;fill-opacity:1"
         transform="scale(0.4) rotate(180) translate(10,0)" />
    </marker>
    <marker
       inkscape:stockid="Arrow1Mstart"
       orient="auto"
       refY="0.0"
       refX="0.0"
       id="Arrow1Mstart"
       style="overflow:visible"
       inkscape:isstock="true">
      <path
         id="path5720"
         d="M 0.0,0.0 L 5.0,-5.0 L -12.5,0.0 L 5.0,5.0 L 0.0,0.0 z "
         style="fill-rule:evenodd;stroke:#000000;stroke-width:1pt;stroke-opacity:1;fill:#000000;fill-opacity:1"
         transform="scale(0.4) translate(10,0)" />
    </marker>
    <marker
       inkscape:stockid="Arrow2Lstart"
       orient="auto"
       refY="0.0"
       refX="0.0"
       id="marker5996"
       style="overflow:visible"
       inkscape:isstock="true">
      <path
         id="path5998"
         style="fill-rule:evenodd;stroke-width:0.625;stroke-linejoin:round;stroke:#000000;stroke-opacity:1;fill:#000000;fill-opacity:1"
         d="M 8.7185878,4.0337352 L -2.2072895,0.016013256 L 8.7185884,-4.0017078 C 6.9730900,-1.6296469 6.9831476,1.6157441 8.7185878,4.0337352 z "
         transform="scale(1.1) translate(1,0)" />
    </marker>
    <marker
       inkscape:stockid="Arrow2Lstart"
       orient="auto"
       refY="0.0"
       refX="0.0"
       id="Arrow2Lstart"
       style="overflow:visible"
       inkscape:isstock="true">
      <path
         id="path5732"
         style="fill-rule:evenodd;stroke-width:0.625;stroke-linejoin:round;stroke:#000000;stroke-opacity:1;fill:#000000;fill-opacity:1"
         d="M 8.7185878,4.0337352 L -2.2072895,0.016013256 L 8.7185884,-4.0017078 C 6.9730900,-1.6296469 6.9831476,1.6157441 8.7185878,4.0337352 z "
         transform="scale(1.1) translate(1,0)" />
    </marker>
  </defs>
  <metadata
     id="metadata7">
    <rdf:RDF>
      <cc:Work
         rdf:about="">
        <dc:format>image/svg+xml</dc:format>
        <dc:type
           rdf:resource="http://purl.org/dc/dcmitype/StillImage" />
        <dc:title></dc:title>
      </cc:Work>
    </rdf:RDF>
  </metadata>
  <g
     transform="translate(0,-698.0315)"
     id="g4155"
     inkscape:groupmode="layer"
     inkscape:label="background"
     sodipodi:insensitive="true" />
  <g
     inkscape:label="zero field cooling"
     inkscape:groupmode="layer"
     id="layer1"
     transform="translate(0,-698.0315)">
    <ellipse
       style="fill:none;fill-opacity:1;stroke:#010101;stroke-width:4.26092005;stroke-miterlimit:4;stroke-dasharray:none;stroke-opacity:1"
       id="path4157-49"
       cx="478.09418"
       cy="791.76807"
       rx="45.963703"
       ry="48.463703" />
    <ellipse
       style="fill:none;fill-opacity:1;stroke:#010101;stroke-width:4.26092005;stroke-miterlimit:4;stroke-dasharray:none;stroke-opacity:1"
       id="path4157-49-6-0"
       cx="298.09418"
       cy="791.76807"
       rx="45.963703"
       ry="48.463703" />
    <ellipse
       style="fill:none;fill-opacity:1;stroke:#010101;stroke-width:4.26092005;stroke-miterlimit:4;stroke-dasharray:none;stroke-opacity:1"
       id="path4157-49-6-0-5"
       cx="83.094162"
       cy="791.76807"
       rx="45.963703"
       ry="48.463703" />
    <path
       style="fill:none;fill-rule:evenodd;stroke:#000000;stroke-width:2;stroke-linecap:butt;stroke-linejoin:miter;stroke-miterlimit:4;stroke-dasharray:none;stroke-opacity:1;marker-start:url(#Arrow1Mstart);marker-end:url(#Arrow1Mend)"
       d="m 137.14285,754.50508 c 45.06862,-21.47818 68.41227,-21.71973 105,0.71428"
       id="path5708"
       inkscape:connector-curvature="0"
       sodipodi:nodetypes="cc" />
    <text
       xml:space="preserve"
       style="font-style:normal;font-weight:normal;font-size:40px;line-height:125%;font-family:sans-serif;letter-spacing:0px;word-spacing:0px;fill:#000000;fill-opacity:1;stroke:none;stroke-width:1px;stroke-linecap:butt;stroke-linejoin:miter;stroke-opacity:1"
       x="278.25934"
       y="800.22974"
       id="text6820-0"
       sodipodi:linespacing="125%"><tspan
         sodipodi:role="line"
         id="tspan6822-2"
         x="278.25934"
         y="800.22974"
         style="font-size:27.5px">SC</tspan></text>
    <g
       id="g6884">
      <g
         id="content"
         transform="matrix(0.506186726657,0,0,-0.506186726657,-88.582677165,425.196850392)"
         xml:space="preserve"
         stroke="black"
         stroke-linecap="butt"
         stroke-linejoin="miter"
         stroke-miterlimit="10.433"
         stroke-dasharray="none"
         stroke-dashoffset="0"
         stroke-opacity="1"
         fill="none"
         fill-rule="evenodd"
         fill-opacity="1"
         font-style="normal"
         font-variant="normal"
         font-weight="normal"
         font-stretch="normal"
         font-size-adjust="none"
         letter-spacing="normal"
         word-spacing="normal"
         text-anchor="start"><path
           d="M475.2,425.58 H480.83 C479.18,418.21,478.74,416.07,478.74,412.73 C478.74,411.98,478.74,410.64,479.14,408.94 C479.63,406.75,480.18,406.45,480.93,406.45 C481.93,406.45,482.97,407.35,482.97,408.34 C482.97,408.64,482.97,408.74,482.67,409.44 C481.23,413.03,481.23,416.27,481.23,417.66 C481.23,420.3,481.58,422.99,482.12,425.58 H487.8 C488.45,425.58,490.24,425.58,490.24,427.27 C490.24,428.47,489.2,428.47,488.25,428.47 H471.56 C470.47,428.47,468.57,428.47,466.38,426.13 C464.64,424.18,463.34,421.89,463.34,421.64 C463.34,421.59,463.34,421.15,463.94,421.15 C464.34,421.15,464.44,421.35,464.74,421.75 C467.18,425.58,470.07,425.58,471.07,425.58 H473.91 C472.31,419.55,469.62,413.53,467.53,408.99 C467.13,408.25,467.13,408.14,467.13,407.8 C467.13,406.85,467.93,406.45,468.57,406.45 C470.07,406.45,470.47,407.85,471.07,409.69 C471.76,411.98,471.76,412.08,472.41,414.57 Z "
           stroke-width="0"
           fill="black"
           id="path6887" /><path
           d="M509.61,432.35 H508.42 C508.32,431.58,507.97,429.52,507.52,429.17 C507.24,428.96,504.55,428.96,504.07,428.96 H497.65 C501.31,432.21,502.53,433.18,504.62,434.82 C507.2,436.88,509.61,439.04,509.61,442.36 C509.61,446.57,505.91,449.15,501.45,449.15 C497.12,449.15,494.2,446.12,494.2,442.91 C494.2,441.13,495.7,440.96,496.04,440.96 C496.88,440.96,497.89,441.55,497.89,442.81 C497.89,443.43,497.65,444.66,495.84,444.66 C496.92,447.13,499.29,447.9,500.93,447.9 C504.41,447.9,506.23,445.18,506.23,442.36 C506.23,439.32,504.07,436.91,502.95,435.66 L494.55,427.36 C494.2,427.05,494.2,426.98,494.2,426 H508.56 Z "
           stroke-width="0"
           fill="black"
           id="path6889" /><polyline
           points="462,385 514.56,385 514.56,387.04 462,387.04 "
           stroke-width="0"
           fill="black"
           fill-rule="nonzero"
           id="polyline6891" /><path
           d="M481.57,356.34 V357.54 C481.57,370.14,487.75,371.93,490.29,371.93 C491.49,371.93,493.58,371.63,494.68,369.94 C493.93,369.94,491.94,369.94,491.94,367.7 C491.94,366.15,493.13,365.41,494.23,365.41 C495.02,365.41,496.52,365.85,496.52,367.8 C496.52,370.79,494.33,373.18,490.19,373.18 C483.82,373.18,477.09,366.75,477.09,355.74 C477.09,342.44,482.87,338.9,487.5,338.9 C493.03,338.9,497.77,343.59,497.77,350.16 C497.77,356.49,493.33,361.27,487.8,361.27 L487.75,360.12 C488.55,360.12,490.84,360.12,492.39,357.04 C493.28,355.19,493.28,352.65,493.28,350.21 C493.28,347.82,493.28,345.33,492.43,343.54 C490.94,340.55,488.65,340.3,487.5,340.3 H487.5 C484.36,340.3,482.87,343.29,482.57,344.04 C481.68,346.38,481.68,350.36,481.68,351.26 C481.68,355.14,483.27,360.12,487.75,360.12 L487.8,361.27 C484.41,361.27,482.57,358.73,481.57,356.34 Z "
           stroke-width="0"
           fill="black"
           id="path6893" /><path
           d="M568.22,390.29 L568.36,390.29 L568.51,390.29 L568.66,390.3 L568.73,390.3 L568.8,390.3 L568.87,390.31 L568.95,390.32 L569.02,390.33 L569.09,390.34 L569.15,390.36 L569.22,390.37 L569.29,390.39 L569.35,390.41 L569.41,390.44 L569.47,390.47 L569.52,390.5 L569.58,390.53 L569.63,390.57 L569.67,390.61 L569.72,390.66 L569.75,390.71 L569.77,390.74 L569.79,390.76 L569.81,390.79 L569.82,390.82 L569.84,390.85 L569.85,390.89 L569.86,390.92 L569.87,390.96 L569.88,390.99 L569.89,391.03 L569.9,391.07 L569.9,391.11 L569.91,391.15 L569.91,391.19 L569.91,391.24 L569.91,391.29 C569.91,392.28,568.97,392.28,568.27,392.28 H538.43 C537.73,392.28,536.79,392.28,536.79,391.29 C536.79,390.29,537.73,390.29,538.48,390.29 Z "
           stroke-width="0"
           fill="black"
           id="path6895" /><path
           d="M568.27,380.62 L568.4,380.63 L568.54,380.63 L568.68,380.63 L568.75,380.64 L568.82,380.64 L568.89,380.65 L568.96,380.66 L569.03,380.67 L569.1,380.68 L569.16,380.69 L569.23,380.71 L569.29,380.73 L569.35,380.75 L569.41,380.77 L569.47,380.8 L569.53,380.83 L569.58,380.87 L569.63,380.91 L569.67,380.95 L569.72,380.99 L569.74,381.02 L569.76,381.05 L569.77,381.07 L569.79,381.1 L569.81,381.13 L569.82,381.16 L569.84,381.19 L569.85,381.22 L569.86,381.26 L569.87,381.29 L569.88,381.33 L569.89,381.37 L569.9,381.41 L569.9,381.45 L569.91,381.49 L569.91,381.53 L569.91,381.58 L569.91,381.62 C569.91,382.62,568.97,382.62,568.22,382.62 H538.48 C537.73,382.62,536.79,382.62,536.79,381.62 C536.79,380.62,537.73,380.62,538.43,380.62 Z "
           stroke-width="0"
           fill="black"
           id="path6897" /><path
           d="M612.82,408.57 L605.65,408.02 V406.48 C609.13,406.48,609.53,406.13,609.53,403.69 V377.79 C609.53,375.54,608.98,375.54,605.65,375.54 V374 H616.7 V375.54 C613.36,375.54,612.82,375.54,612.82,377.79 Z "
           stroke-width="0"
           fill="black"
           id="path6899" /><path
           d="M626.82,396.02 L619.84,395.47 V393.93 C623.08,393.93,623.53,393.62,623.53,391.18 V377.79 C623.53,375.54,622.98,375.54,619.65,375.54 V374 H630.3 V375.54 C627.02,375.54,626.82,375.79,626.82,377.73 Z "
           stroke-width="0"
           fill="black"
           id="path6901" /><path
           d="M627.02,404.68 L627.01,404.83 L627,404.98 L626.98,405.12 L626.96,405.25 L626.93,405.39 L626.89,405.52 L626.85,405.65 L626.8,405.77 L626.74,405.89 L626.68,406 L626.62,406.11 L626.55,406.22 L626.47,406.32 L626.39,406.42 L626.31,406.51 L626.22,406.6 L626.13,406.69 L626.03,406.76 L625.93,406.84 L625.82,406.91 L625.72,406.97 L625.61,407.03 L625.49,407.09 L625.38,407.14 L625.26,407.18 L625.14,407.22 L625.01,407.25 L624.89,407.28 L624.76,407.3 L624.63,407.31 L624.51,407.32 L624.38,407.32 C622.83,407.32,621.73,405.98,621.73,404.68 C621.73,403.34,622.83,402.04,624.38,402.04 C625.77,402.04,627.02,403.09,627.02,404.68 Z "
           stroke-width="0"
           fill="black"
           id="path6903" /><path
           d="M636.48,391.14 V377.79 C636.48,375.54,635.93,375.54,632.59,375.54 V374 H643.8 V375.54 C640.47,375.54,639.92,375.54,639.92,377.79 V386.95 C639.92,392.13,643.45,394.92,646.64,394.92 C649.78,394.92,650.33,392.23,650.33,389.39 V377.79 C650.33,375.54,649.78,375.54,646.44,375.54 V374 H657.65 V375.54 C654.31,375.54,653.77,375.54,653.77,377.79 V386.95 C653.77,392.13,657.3,394.92,660.49,394.92 C663.63,394.92,664.18,392.23,664.18,389.39 V377.79 C664.18,375.54,663.63,375.54,660.29,375.54 V374 H671.5 V375.54 C668.91,375.54,667.66,375.54,667.61,377.04 V386.55 C667.61,390.84,667.61,392.38,666.07,394.18 C665.37,395.02,663.73,396.02,660.84,396.02 C656.65,396.02,654.46,393.03,653.61,391.14 C652.92,395.47,649.23,396.02,646.99,396.02 C643.35,396.02,641.01,393.88,639.62,390.79 V396.02 L632.59,395.47 V393.93 C636.08,393.93,636.48,393.58,636.48,391.14 Z "
           stroke-width="0"
           fill="black"
           id="path6905" /><path
           d="M590.25,346.2 L590.24,346.15 L590.23,346.11 L590.21,346.06 L590.2,346.01 L590.18,345.96 L590.17,345.9 L590.15,345.85 L590.14,345.8 L590.11,345.68 L590.08,345.57 L590.05,345.46 L590.03,345.35 L590.01,345.3 L590,345.24 L589.99,345.19 L589.98,345.14 L589.97,345.1 L589.96,345.05 L589.95,345.01 L589.94,344.97 L589.93,344.93 L589.93,344.9 L589.92,344.87 L589.92,344.84 L589.91,344.81 L589.91,344.79 L589.91,344.79 L589.91,344.78 L589.91,344.77 L589.91,344.77 C589.91,344,590.53,343.65,591.09,343.65 C591.72,343.65,592.28,344.11,592.45,344.42 C592.62,344.73,592.9,345.85,593.08,346.58 C593.25,347.24,593.64,348.85,593.84,349.72 C594.05,350.48,594.27,351.25,594.44,352.05 C594.82,353.48,594.89,353.76,595.9,355.19 C596.88,356.59,598.52,358.4,601.13,358.4 C603.16,358.4,603.19,356.62,603.19,355.96 C603.19,353.87,601.69,350,601.13,348.53 C600.75,347.56,600.61,347.24,600.61,346.65 C600.61,344.8,602.15,343.65,603.92,343.65 C607.41,343.65,608.95,348.46,608.95,348.98 C608.95,349.44,608.49,349.44,608.39,349.44 C607.9,349.44,607.86,349.23,607.72,348.85 C606.92,346.06,605.42,344.63,604.03,344.63 C603.3,344.63,603.16,345.12,603.16,345.85 C603.16,346.65,603.33,347.1,603.96,348.67 C604.38,349.75,605.8,353.45,605.8,355.4 C605.8,358.79,603.12,359.38,601.27,359.38 C598.38,359.38,596.43,357.6,595.38,356.2 C595.14,358.61,593.08,359.38,591.65,359.38 C590.15,359.38,589.35,358.3,588.9,357.5 C588.13,356.2,587.64,354.21,587.64,354.04 C587.64,353.59,588.13,353.59,588.23,353.59 C588.72,353.59,588.75,353.7,589,354.64 C589.52,356.69,590.18,358.4,591.54,358.4 C592.45,358.4,592.7,357.63,592.7,356.69 C592.7,356.03,592.38,354.74,592.14,353.8 C591.9,352.86,591.54,351.43,591.37,350.66 Z "
           stroke-width="0"
           fill="black"
           id="path6907" /><path
           d="M643.08,351.88 L642.68,351.57 L642.3,351.26 L641.94,350.95 L641.6,350.62 L641.29,350.3 L640.99,349.97 L640.71,349.64 L640.45,349.31 L640.2,348.98 L639.98,348.65 L639.77,348.33 L639.57,348.01 L639.39,347.69 L639.23,347.38 L639.08,347.08 L638.94,346.79 L638.82,346.5 L638.7,346.22 L638.6,345.96 L638.51,345.71 L638.43,345.47 L638.37,345.25 L638.31,345.04 L638.26,344.85 L638.21,344.68 L638.18,344.53 L638.15,344.4 L638.13,344.28 L638.11,344.19 L638.1,344.13 L638.1,344.09 L638.09,344.07 C638.09,343.55,638.44,343.55,638.93,343.55 C639.56,343.55,639.66,343.55,639.84,344.14 C640.05,345.01,640.6,347.24,642.42,349.16 C644.44,351.29,646.18,351.81,647.65,352.27 C647.85,352.33,648,352.54,648,352.72 C648,353.07,647.78,353.14,647.33,353.27 C642.31,354.88,640.53,358.44,639.8,361.5 C639.66,361.92,639.42,361.92,638.93,361.92 C638.44,361.92,638.09,361.92,638.09,361.4 C638.09,361.33,638.44,358.99,640.15,356.59 C640.95,355.4,641.93,354.43,643.08,353.59 H615.08 C614.52,353.59,613.68,353.59,613.68,352.75 C613.68,351.88,614.49,351.88,615.08,351.88 Z "
           stroke-width="0"
           fill="black"
           id="path6909" /><path
           d="M671.16,353.55 L670.99,353.75 L670.82,353.94 L670.67,354.12 L670.52,354.3 L670.38,354.46 L670.24,354.62 L670.11,354.77 L669.98,354.91 L669.86,355.05 L669.74,355.18 L669.62,355.31 L669.51,355.43 L669.4,355.54 L669.3,355.65 L669.19,355.76 L669.09,355.86 L668.89,356.05 L668.7,356.24 L668.5,356.41 L668.31,356.58 L668.1,356.74 L667.89,356.91 L667.78,356.99 L667.66,357.08 L667.54,357.16 L667.42,357.25 C665.3,358.79,663.07,359.38,661.15,359.38 C656.82,359.38,653.68,355.68,653.68,351.5 H654.66 C654.66,354.84,657.38,357.46,660.59,357.46 C663.83,357.46,666.06,354.81,669.41,350.77 H669.41 C668.02,348.5,664.98,344.98,660.73,344.98 C657.14,344.98,654.66,348.15,654.66,351.5 H653.68 C653.68,347.42,656.68,343.65,661.04,343.65 C665.89,343.65,669.27,347.62,670.53,349.47 C672.38,347.31,672.93,346.72,674.26,345.78 C676.39,344.24,678.62,343.65,680.53,343.65 C684.86,343.65,688,347.35,688,351.53 H687.02 C687.02,348.18,684.3,345.57,681.09,345.57 C677.85,345.57,675.62,348.22,672.27,352.27 H672.27 C673.66,354.53,676.7,358.05,680.95,358.05 C684.54,358.05,687.02,354.88,687.02,351.53 H688 C688,355.61,685,359.38,680.64,359.38 C675.79,359.38,672.41,355.4,671.16,353.55 Z "
           stroke-width="0"
           fill="black"
           id="path6911" /><path
           d="M727.25,438.2 L727.24,438.15 L727.23,438.11 L727.21,438.06 L727.2,438.01 L727.18,437.96 L727.17,437.9 L727.15,437.85 L727.14,437.8 L727.11,437.68 L727.08,437.57 L727.05,437.46 L727.03,437.35 L727.01,437.3 L727,437.24 L726.99,437.19 L726.98,437.14 L726.97,437.1 L726.96,437.05 L726.95,437.01 L726.94,436.97 L726.93,436.93 L726.93,436.9 L726.92,436.87 L726.92,436.84 L726.91,436.81 L726.91,436.79 L726.91,436.79 L726.91,436.78 L726.91,436.77 L726.91,436.77 C726.91,436,727.53,435.65,728.09,435.65 C728.72,435.65,729.28,436.11,729.45,436.42 C729.62,436.73,729.9,437.85,730.08,438.58 C730.25,439.24,730.64,440.85,730.84,441.72 C731.05,442.48,731.27,443.25,731.44,444.05 C731.82,445.48,731.89,445.76,732.9,447.19 C733.88,448.59,735.52,450.4,738.13,450.4 C740.16,450.4,740.19,448.62,740.19,447.96 C740.19,445.87,738.69,442,738.13,440.53 C737.75,439.56,737.61,439.24,737.61,438.65 C737.61,436.8,739.15,435.65,740.92,435.65 C744.41,435.65,745.95,440.46,745.95,440.98 C745.95,441.44,745.49,441.44,745.39,441.44 C744.9,441.44,744.86,441.23,744.72,440.85 C743.92,438.06,742.42,436.63,741.03,436.63 C740.3,436.63,740.16,437.12,740.16,437.85 C740.16,438.65,740.33,439.1,740.96,440.67 C741.38,441.75,742.8,445.45,742.8,447.4 C742.8,450.79,740.12,451.38,738.27,451.38 C735.38,451.38,733.43,449.6,732.38,448.2 C732.14,450.61,730.08,451.38,728.65,451.38 C727.15,451.38,726.35,450.3,725.9,449.5 C725.13,448.2,724.64,446.21,724.64,446.04 C724.64,445.59,725.13,445.59,725.23,445.59 C725.72,445.59,725.75,445.7,726,446.64 C726.52,448.69,727.18,450.4,728.54,450.4 C729.45,450.4,729.7,449.63,729.7,448.69 C729.7,448.03,729.38,446.74,729.14,445.8 C728.9,444.86,728.54,443.43,728.37,442.66 Z "
           stroke-width="0"
           fill="black"
           id="path6913" /><path
           d="M762.06,351.26 L768.09,367.2 H766.84 C764.9,362.02,759.62,358.63,753.9,357.14 C752.85,356.89,747.97,355.59,738.4,355.59 H708.36 L733.72,385.33 C734.07,385.73,734.17,385.88,734.17,386.13 C734.17,386.23,734.17,386.38,733.82,386.88 L710.6,418.61 H737.9 C744.58,418.61,749.11,417.91,749.56,417.81 C752.25,417.41,756.59,416.57,760.52,414.07 C761.77,413.28,765.15,411.04,766.84,407 H768.09 L762.06,421 H703.18 C702.04,421,701.99,420.95,701.84,420.65 C701.79,420.5,701.79,419.55,701.79,419.01 L728.14,382.94 L702.34,352.71 C701.84,352.11,701.84,351.86,701.84,351.81 C701.84,351.26,702.29,351.26,703.18,351.26 Z "
           stroke-width="0"
           fill="black"
           id="path6915" /><path
           d="M709.91,337.15 L709.92,337.16 L709.92,337.16 L709.92,337.16 L709.92,337.17 L709.92,337.18 L709.93,337.18 L709.93,337.19 L709.93,337.19 L709.93,337.21 L709.94,337.23 L709.95,337.25 L709.95,337.26 L709.96,337.28 L709.96,337.31 L709.97,337.33 L709.97,337.35 L709.98,337.37 L709.99,337.4 L710,337.44 L710.01,337.49 L710.01,337.52 L710.02,337.54 L710.02,337.56 L710.03,337.58 L710.03,337.6 L710.04,337.62 L710.04,337.64 L710.04,337.65 L710.05,337.66 L710.05,337.67 L710.05,337.67 L710.05,337.68 L710.05,337.69 L710.05,337.69 L710.05,337.7 L710.05,337.7 L710.05,337.7 L710.05,337.71 L710.05,337.71 L710.05,337.71 C710.05,337.89,709.91,338.2,709.5,338.2 C708.8,338.2,705.9,337.92,705.03,337.85 C704.75,337.82,704.27,337.78,704.27,337.05 C704.27,336.56,704.75,336.56,705.17,336.56 C706.84,336.56,706.84,336.32,706.84,336.04 C706.84,335.79,706.78,335.58,706.71,335.27 L701.79,315.54 C701.61,314.91,701.61,314.84,701.61,314.77 C701.61,314.24,702.03,313.65,702.8,313.65 C703.74,313.65,704.2,314.35,704.41,315.12 C704.47,315.25,705.97,321.39,706.11,321.88 C708.59,321.64,710.58,320.84,710.58,319.02 C710.58,318.85,710.58,318.67,710.51,318.32 C710.37,317.8,710.37,317.62,710.37,317.24 C710.37,314.77,712.39,313.65,714.06,313.65 C717.45,313.65,718.49,318.95,718.49,318.98 C718.49,319.44,718.04,319.44,717.93,319.44 C717.45,319.44,717.41,319.27,717.24,318.6 C716.82,317.1,715.88,314.63,714.17,314.63 C713.23,314.63,712.95,315.5,712.95,316.44 C712.95,317.04,712.95,317.1,713.16,318.01 C713.19,318.11,713.33,318.71,713.33,319.09 C713.33,322.2,709.15,322.68,707.68,322.79 C708.7,323.41,709.98,324.57,710.58,325.09 C712.35,326.76,714.1,328.4,716.05,328.4 C716.47,328.4,716.92,328.3,717.2,327.95 C715.7,327.7,715.39,326.52,715.39,326 C715.39,325.23,715.98,324.7,716.78,324.7 C717.73,324.7,718.77,325.47,718.77,326.94 C718.77,328.09,717.93,329.38,716.09,329.38 C714.1,329.38,712.28,327.95,710.51,326.31 C709.04,324.91,707.89,323.83,706.46,323.24 Z "
           stroke-width="0"
           fill="black"
           id="path6917" /><path
           d="M747.78,325.71 L747.83,325.72 L747.88,325.72 L747.93,325.72 L747.99,325.72 L748.1,325.72 L748.15,325.72 L748.21,325.73 L748.26,325.73 L748.32,325.74 L748.37,325.75 L748.43,325.76 L748.48,325.77 L748.54,325.79 L748.59,325.8 L748.64,325.82 L748.69,325.85 L748.73,325.87 L748.78,325.9 L748.82,325.93 L748.86,325.96 L748.9,326 L748.94,326.04 L748.96,326.06 L748.97,326.08 L748.99,326.11 L749,326.13 L749.01,326.16 L749.03,326.18 L749.04,326.21 L749.05,326.24 L749.06,326.27 L749.07,326.3 L749.08,326.33 L749.08,326.36 L749.09,326.4 L749.1,326.43 L749.1,326.47 L749.1,326.51 L749.1,326.55 L749.1,326.59 C749.1,327.43,748.27,327.43,747.81,327.43 H724.73 C724.28,327.43,723.44,327.43,723.44,326.59 C723.44,325.71,724.24,325.71,724.77,325.71 Z "
           stroke-width="0"
           fill="black"
           id="path6919" /><path
           d="M747.81,318.04 L747.86,318.04 L747.9,318.04 L747.95,318.04 L748,318.04 L748.05,318.05 L748.1,318.05 L748.15,318.05 L748.21,318.06 L748.26,318.06 L748.32,318.07 L748.37,318.08 L748.42,318.09 L748.48,318.1 L748.53,318.11 L748.58,318.13 L748.63,318.15 L748.68,318.17 L748.73,318.19 L748.77,318.22 L748.82,318.25 L748.86,318.28 L748.9,318.32 L748.93,318.35 L748.95,318.38 L748.97,318.4 L748.98,318.42 L749,318.44 L749.01,318.47 L749.02,318.49 L749.04,318.52 L749.05,318.55 L749.06,318.58 L749.07,318.61 L749.08,318.64 L749.08,318.67 L749.09,318.7 L749.1,318.74 L749.1,318.77 L749.1,318.81 L749.1,318.84 L749.1,318.88 C749.1,319.75,748.3,319.75,747.78,319.75 H724.77 C724.24,319.75,723.44,319.75,723.44,318.88 C723.44,318.04,724.28,318.04,724.73,318.04 Z "
           stroke-width="0"
           fill="black"
           id="path6921" /><path
           d="M762.68,336.18 L762.68,336.22 L762.68,336.26 L762.68,336.3 L762.68,336.34 L762.68,336.38 L762.68,336.42 L762.68,336.45 L762.68,336.49 L762.67,336.52 L762.67,336.55 L762.67,336.59 L762.67,336.62 L762.66,336.64 L762.66,336.67 L762.66,336.7 L762.65,336.73 L762.65,336.75 L762.65,336.77 L762.63,336.82 L762.62,336.86 L762.61,336.9 L762.59,336.93 L762.57,336.96 L762.55,336.99 L762.52,337.02 L762.5,337.04 L762.47,337.06 L762.43,337.08 L762.4,337.09 L762.36,337.1 L762.31,337.12 L762.26,337.12 L762.24,337.13 L762.21,337.13 L762.18,337.14 L762.16,337.14 L762.13,337.14 L762.1,337.14 L762.06,337.14 L762.03,337.15 L762,337.15 L761.96,337.15 L761.93,337.15 L761.89,337.15 L761.85,337.15 L761.81,337.15 L761.77,337.15 L761.73,337.15 L761.68,337.15 L761.64,337.15 C759.4,334.96,756.23,334.92,754.8,334.92 V333.67 C755.64,333.67,757.94,333.67,759.85,334.64 V316.86 C759.85,315.71,759.85,315.25,756.37,315.25 H755.04 V314 H767.49 V315.25 H766.17 C762.68,315.25,762.68,315.71,762.68,316.86 Z "
           stroke-width="0"
           fill="black"
           id="path6923" /><path
           d="M812.65,438.88 L812.65,438.93 L812.64,438.99 L812.64,439.04 L812.64,439.09 L812.64,439.14 L812.64,439.19 L812.64,439.23 L812.64,439.28 L812.64,439.32 L812.64,439.36 L812.64,439.4 L812.64,439.44 L812.64,439.48 L812.63,439.52 L812.63,439.55 L812.63,439.59 L812.62,439.62 L812.62,439.65 L812.61,439.71 L812.6,439.76 L812.58,439.81 L812.57,439.86 L812.55,439.9 L812.53,439.94 L812.5,439.98 L812.47,440.01 L812.44,440.03 L812.41,440.06 L812.37,440.08 L812.32,440.1 L812.3,440.11 L812.27,440.12 L812.25,440.12 L812.22,440.13 L812.19,440.14 L812.16,440.14 L812.13,440.15 L812.1,440.15 L812.07,440.16 L812.03,440.16 L811.99,440.16 L811.96,440.16 L811.92,440.17 L811.88,440.17 L811.84,440.17 L811.79,440.17 L811.75,440.17 L811.7,440.17 L811.65,440.18 L811.6,440.18 L811.55,440.18 L811.5,440.18 C808.41,436.99,804.03,436.99,802.43,436.99 V435.44 C803.43,435.44,806.37,435.44,808.96,436.74 V410.93 C808.96,409.14,808.81,408.54,804.33,408.54 H802.73 V407 H818.87 V408.54 H817.28 C812.79,408.54,812.65,409.09,812.65,410.93 Z "
           stroke-width="0"
           fill="black"
           id="path6925" /><polyline
           points="786,385 835.92,385 835.92,387.04 786,387.04 "
           stroke-width="0"
           fill="black"
           fill-rule="nonzero"
           id="polyline6927" /><path
           d="M800.3,374.02 L800.3,374.03 L800.3,374.03 L800.3,374.04 L800.3,374.05 L800.3,374.06 L800.29,374.07 L800.29,374.09 L800.29,374.11 L800.29,374.13 L800.28,374.15 L800.28,374.17 L800.27,374.19 L800.26,374.22 L800.25,374.24 L800.24,374.27 L800.23,374.29 L800.22,374.31 L800.2,374.34 L800.18,374.36 L800.16,374.39 L800.14,374.41 L800.13,374.42 L800.11,374.43 L800.1,374.44 L800.09,374.45 L800.07,374.46 L800.06,374.47 L800.04,374.48 L800.02,374.49 L800.01,374.5 L799.99,374.51 L799.97,374.52 L799.95,374.52 L799.93,374.53 L799.91,374.54 L799.89,374.54 L799.86,374.55 L799.84,374.55 L799.81,374.56 L799.79,374.56 L799.76,374.56 L799.74,374.57 L799.71,374.57 L799.68,374.57 L799.65,374.57 C798.5,374.57,794.87,374.17,793.57,374.07 C793.17,374.02,792.62,373.97,792.62,373.07 C792.62,372.48,793.07,372.48,793.82,372.48 C796.21,372.48,796.31,372.13,796.31,371.63 L796.16,370.64 L788.94,341.94 C788.74,341.25,788.74,341.14,788.74,340.85 C788.74,339.7,789.73,339.45,790.18,339.45 C790.83,339.45,791.58,339.9,791.88,340.5 C792.13,340.95,794.37,350.16,794.67,351.41 C796.36,351.26,800.45,350.46,800.45,347.17 C800.45,346.82,800.45,346.62,800.3,346.13 C800.2,345.53,800.1,344.93,800.1,344.38 C800.1,341.45,802.09,339.45,804.68,339.45 C806.18,339.45,807.52,340.25,808.61,342.09 C809.86,344.29,810.41,347.02,810.41,347.12 C810.41,347.62,809.96,347.62,809.81,347.62 C809.31,347.62,809.26,347.42,809.11,346.73 C808.12,343.09,806.97,340.55,804.78,340.55 C803.83,340.55,803.18,341.1,803.18,342.89 C803.18,343.73,803.39,344.88,803.59,345.68 C803.78,346.53,803.78,346.73,803.78,347.22 C803.78,350.46,800.65,351.91,796.41,352.45 C797.96,353.35,799.55,354.95,800.7,356.14 C803.09,358.78,805.38,360.92,807.82,360.92 C808.12,360.92,808.17,360.92,808.27,360.87 C808.86,360.77,808.91,360.77,809.31,360.47 C809.41,360.42,809.41,360.38,809.51,360.27 C807.12,360.12,806.67,358.18,806.67,357.59 C806.67,356.79,807.22,355.84,808.57,355.84 C809.86,355.84,811.3,356.94,811.3,358.88 C811.3,360.38,810.16,362.02,807.92,362.02 C806.52,362.02,804.23,361.62,800.65,357.63 C798.95,355.74,797.01,353.75,795.12,353 Z "
           stroke-width="0"
           fill="black"
           id="path6929" /><path
           d="M830.61,360.35 H829.42 C829.32,359.58,828.97,357.52,828.52,357.17 C828.24,356.96,825.55,356.96,825.07,356.96 H818.65 C822.31,360.21,823.53,361.18,825.62,362.82 C828.2,364.88,830.61,367.04,830.61,370.36 C830.61,374.57,826.91,377.15,822.45,377.15 C818.12,377.15,815.2,374.12,815.2,370.91 C815.2,369.13,816.7,368.96,817.04,368.96 C817.88,368.96,818.9,369.55,818.9,370.81 C818.9,371.43,818.65,372.66,816.84,372.66 C817.92,375.13,820.29,375.9,821.93,375.9 C825.41,375.9,827.23,373.18,827.23,370.36 C827.23,367.32,825.07,364.91,823.95,363.66 L815.55,355.36 C815.2,355.05,815.2,354.98,815.2,354 H829.56 Z "
           stroke-width="0"
           fill="black"
           id="path6931" /></g>    </g>
    <g
       id="g7029">
      <g
         text-anchor="start"
         word-spacing="normal"
         letter-spacing="normal"
         font-size-adjust="none"
         font-stretch="normal"
         font-weight="normal"
         font-variant="normal"
         font-style="normal"
         fill-opacity="1"
         fill-rule="evenodd"
         fill="none"
         stroke-opacity="1"
         stroke-dashoffset="0"
         stroke-dasharray="none"
         stroke-miterlimit="10.433"
         stroke-linejoin="miter"
         stroke-linecap="butt"
         stroke="black"
         xml:space="preserve"
         transform="matrix(0.506186726657,0,0,-0.506186726657,-88.582677165,425.196850392)"
         id="g7031"><path
           id="path7033"
           fill="black"
           stroke-width="0"
           d="M475.2,425.58 H480.83 C479.18,418.21,478.74,416.07,478.74,412.73 C478.74,411.98,478.74,410.64,479.14,408.94 C479.63,406.75,480.18,406.45,480.93,406.45 C481.93,406.45,482.97,407.35,482.97,408.34 C482.97,408.64,482.97,408.74,482.67,409.44 C481.23,413.03,481.23,416.27,481.23,417.66 C481.23,420.3,481.58,422.99,482.12,425.58 H487.8 C488.45,425.58,490.24,425.58,490.24,427.27 C490.24,428.47,489.2,428.47,488.25,428.47 H471.56 C470.47,428.47,468.57,428.47,466.38,426.13 C464.64,424.18,463.34,421.89,463.34,421.64 C463.34,421.59,463.34,421.15,463.94,421.15 C464.34,421.15,464.44,421.35,464.74,421.75 C467.18,425.58,470.07,425.58,471.07,425.58 H473.91 C472.31,419.55,469.62,413.53,467.53,408.99 C467.13,408.25,467.13,408.14,467.13,407.8 C467.13,406.85,467.93,406.45,468.57,406.45 C470.07,406.45,470.47,407.85,471.07,409.69 C471.76,411.98,471.76,412.08,472.41,414.57 Z " /><path
           id="path7035"
           fill="black"
           stroke-width="0"
           d="M509.61,432.35 H508.42 C508.32,431.58,507.97,429.52,507.52,429.17 C507.24,428.96,504.55,428.96,504.07,428.96 H497.65 C501.31,432.21,502.53,433.18,504.62,434.82 C507.2,436.88,509.61,439.04,509.61,442.36 C509.61,446.57,505.91,449.15,501.45,449.15 C497.12,449.15,494.2,446.12,494.2,442.91 C494.2,441.13,495.7,440.96,496.04,440.96 C496.88,440.96,497.89,441.55,497.89,442.81 C497.89,443.43,497.65,444.66,495.84,444.66 C496.92,447.13,499.29,447.9,500.93,447.9 C504.41,447.9,506.23,445.18,506.23,442.36 C506.23,439.32,504.07,436.91,502.95,435.66 L494.55,427.36 C494.2,427.05,494.2,426.98,494.2,426 H508.56 Z " /><polyline
           id="polyline7037"
           fill-rule="nonzero"
           fill="black"
           stroke-width="0"
           points="462,385 514.56,385 514.56,387.04 462,387.04 " /><path
           id="path7039"
           fill="black"
           stroke-width="0"
           d="M481.57,356.34 V357.54 C481.57,370.14,487.75,371.93,490.29,371.93 C491.49,371.93,493.58,371.63,494.68,369.94 C493.93,369.94,491.94,369.94,491.94,367.7 C491.94,366.15,493.13,365.41,494.23,365.41 C495.02,365.41,496.52,365.85,496.52,367.8 C496.52,370.79,494.33,373.18,490.19,373.18 C483.82,373.18,477.09,366.75,477.09,355.74 C477.09,342.44,482.87,338.9,487.5,338.9 C493.03,338.9,497.77,343.59,497.77,350.16 C497.77,356.49,493.33,361.27,487.8,361.27 L487.75,360.12 C488.55,360.12,490.84,360.12,492.39,357.04 C493.28,355.19,493.28,352.65,493.28,350.21 C493.28,347.82,493.28,345.33,492.43,343.54 C490.94,340.55,488.65,340.3,487.5,340.3 H487.5 C484.36,340.3,482.87,343.29,482.57,344.04 C481.68,346.38,481.68,350.36,481.68,351.26 C481.68,355.14,483.27,360.12,487.75,360.12 L487.8,361.27 C484.41,361.27,482.57,358.73,481.57,356.34 Z " /><path
           id="path7041"
           fill="black"
           stroke-width="0"
           d="M568.22,390.29 L568.36,390.29 L568.51,390.29 L568.66,390.3 L568.73,390.3 L568.8,390.3 L568.87,390.31 L568.95,390.32 L569.02,390.33 L569.09,390.34 L569.15,390.36 L569.22,390.37 L569.29,390.39 L569.35,390.41 L569.41,390.44 L569.47,390.47 L569.52,390.5 L569.58,390.53 L569.63,390.57 L569.67,390.61 L569.72,390.66 L569.75,390.71 L569.77,390.74 L569.79,390.76 L569.81,390.79 L569.82,390.82 L569.84,390.85 L569.85,390.89 L569.86,390.92 L569.87,390.96 L569.88,390.99 L569.89,391.03 L569.9,391.07 L569.9,391.11 L569.91,391.15 L569.91,391.19 L569.91,391.24 L569.91,391.29 C569.91,392.28,568.97,392.28,568.27,392.28 H538.43 C537.73,392.28,536.79,392.28,536.79,391.29 C536.79,390.29,537.73,390.29,538.48,390.29 Z " /><path
           id="path7043"
           fill="black"
           stroke-width="0"
           d="M568.27,380.62 L568.4,380.63 L568.54,380.63 L568.68,380.63 L568.75,380.64 L568.82,380.64 L568.89,380.65 L568.96,380.66 L569.03,380.67 L569.1,380.68 L569.16,380.69 L569.23,380.71 L569.29,380.73 L569.35,380.75 L569.41,380.77 L569.47,380.8 L569.53,380.83 L569.58,380.87 L569.63,380.91 L569.67,380.95 L569.72,380.99 L569.74,381.02 L569.76,381.05 L569.77,381.07 L569.79,381.1 L569.81,381.13 L569.82,381.16 L569.84,381.19 L569.85,381.22 L569.86,381.26 L569.87,381.29 L569.88,381.33 L569.89,381.37 L569.9,381.41 L569.9,381.45 L569.91,381.49 L569.91,381.53 L569.91,381.58 L569.91,381.62 C569.91,382.62,568.97,382.62,568.22,382.62 H538.48 C537.73,382.62,536.79,382.62,536.79,381.62 C536.79,380.62,537.73,380.62,538.43,380.62 Z " /><path
           id="path7045"
           fill="black"
           stroke-width="0"
           d="M612.82,408.57 L605.65,408.02 V406.48 C609.13,406.48,609.53,406.13,609.53,403.69 V377.79 C609.53,375.54,608.98,375.54,605.65,375.54 V374 H616.7 V375.54 C613.36,375.54,612.82,375.54,612.82,377.79 Z " /><path
           id="path7047"
           fill="black"
           stroke-width="0"
           d="M626.82,396.02 L619.84,395.47 V393.93 C623.08,393.93,623.53,393.62,623.53,391.18 V377.79 C623.53,375.54,622.98,375.54,619.65,375.54 V374 H630.3 V375.54 C627.02,375.54,626.82,375.79,626.82,377.73 Z " /><path
           id="path7049"
           fill="black"
           stroke-width="0"
           d="M627.02,404.68 L627.01,404.83 L627,404.98 L626.98,405.12 L626.96,405.25 L626.93,405.39 L626.89,405.52 L626.85,405.65 L626.8,405.77 L626.74,405.89 L626.68,406 L626.62,406.11 L626.55,406.22 L626.47,406.32 L626.39,406.42 L626.31,406.51 L626.22,406.6 L626.13,406.69 L626.03,406.76 L625.93,406.84 L625.82,406.91 L625.72,406.97 L625.61,407.03 L625.49,407.09 L625.38,407.14 L625.26,407.18 L625.14,407.22 L625.01,407.25 L624.89,407.28 L624.76,407.3 L624.63,407.31 L624.51,407.32 L624.38,407.32 C622.83,407.32,621.73,405.98,621.73,404.68 C621.73,403.34,622.83,402.04,624.38,402.04 C625.77,402.04,627.02,403.09,627.02,404.68 Z " /><path
           id="path7051"
           fill="black"
           stroke-width="0"
           d="M636.48,391.14 V377.79 C636.48,375.54,635.93,375.54,632.59,375.54 V374 H643.8 V375.54 C640.47,375.54,639.92,375.54,639.92,377.79 V386.95 C639.92,392.13,643.45,394.92,646.64,394.92 C649.78,394.92,650.33,392.23,650.33,389.39 V377.79 C650.33,375.54,649.78,375.54,646.44,375.54 V374 H657.65 V375.54 C654.31,375.54,653.77,375.54,653.77,377.79 V386.95 C653.77,392.13,657.3,394.92,660.49,394.92 C663.63,394.92,664.18,392.23,664.18,389.39 V377.79 C664.18,375.54,663.63,375.54,660.29,375.54 V374 H671.5 V375.54 C668.91,375.54,667.66,375.54,667.61,377.04 V386.55 C667.61,390.84,667.61,392.38,666.07,394.18 C665.37,395.02,663.73,396.02,660.84,396.02 C656.65,396.02,654.46,393.03,653.61,391.14 C652.92,395.47,649.23,396.02,646.99,396.02 C643.35,396.02,641.01,393.88,639.62,390.79 V396.02 L632.59,395.47 V393.93 C636.08,393.93,636.48,393.58,636.48,391.14 Z " /><path
           id="path7053"
           fill="black"
           stroke-width="0"
           d="M590.25,346.2 L590.24,346.15 L590.23,346.11 L590.21,346.06 L590.2,346.01 L590.18,345.96 L590.17,345.9 L590.15,345.85 L590.14,345.8 L590.11,345.68 L590.08,345.57 L590.05,345.46 L590.03,345.35 L590.01,345.3 L590,345.24 L589.99,345.19 L589.98,345.14 L589.97,345.1 L589.96,345.05 L589.95,345.01 L589.94,344.97 L589.93,344.93 L589.93,344.9 L589.92,344.87 L589.92,344.84 L589.91,344.81 L589.91,344.79 L589.91,344.79 L589.91,344.78 L589.91,344.77 L589.91,344.77 C589.91,344,590.53,343.65,591.09,343.65 C591.72,343.65,592.28,344.11,592.45,344.42 C592.62,344.73,592.9,345.85,593.08,346.58 C593.25,347.24,593.64,348.85,593.84,349.72 C594.05,350.48,594.27,351.25,594.44,352.05 C594.82,353.48,594.89,353.76,595.9,355.19 C596.88,356.59,598.52,358.4,601.13,358.4 C603.16,358.4,603.19,356.62,603.19,355.96 C603.19,353.87,601.69,350,601.13,348.53 C600.75,347.56,600.61,347.24,600.61,346.65 C600.61,344.8,602.15,343.65,603.92,343.65 C607.41,343.65,608.95,348.46,608.95,348.98 C608.95,349.44,608.49,349.44,608.39,349.44 C607.9,349.44,607.86,349.23,607.72,348.85 C606.92,346.06,605.42,344.63,604.03,344.63 C603.3,344.63,603.16,345.12,603.16,345.85 C603.16,346.65,603.33,347.1,603.96,348.67 C604.38,349.75,605.8,353.45,605.8,355.4 C605.8,358.79,603.12,359.38,601.27,359.38 C598.38,359.38,596.43,357.6,595.38,356.2 C595.14,358.61,593.08,359.38,591.65,359.38 C590.15,359.38,589.35,358.3,588.9,357.5 C588.13,356.2,587.64,354.21,587.64,354.04 C587.64,353.59,588.13,353.59,588.23,353.59 C588.72,353.59,588.75,353.7,589,354.64 C589.52,356.69,590.18,358.4,591.54,358.4 C592.45,358.4,592.7,357.63,592.7,356.69 C592.7,356.03,592.38,354.74,592.14,353.8 C591.9,352.86,591.54,351.43,591.37,350.66 Z " /><path
           id="path7055"
           fill="black"
           stroke-width="0"
           d="M643.08,351.88 L642.68,351.57 L642.3,351.26 L641.94,350.95 L641.6,350.62 L641.29,350.3 L640.99,349.97 L640.71,349.64 L640.45,349.31 L640.2,348.98 L639.98,348.65 L639.77,348.33 L639.57,348.01 L639.39,347.69 L639.23,347.38 L639.08,347.08 L638.94,346.79 L638.82,346.5 L638.7,346.22 L638.6,345.96 L638.51,345.71 L638.43,345.47 L638.37,345.25 L638.31,345.04 L638.26,344.85 L638.21,344.68 L638.18,344.53 L638.15,344.4 L638.13,344.28 L638.11,344.19 L638.1,344.13 L638.1,344.09 L638.09,344.07 C638.09,343.55,638.44,343.55,638.93,343.55 C639.56,343.55,639.66,343.55,639.84,344.14 C640.05,345.01,640.6,347.24,642.42,349.16 C644.44,351.29,646.18,351.81,647.65,352.27 C647.85,352.33,648,352.54,648,352.72 C648,353.07,647.78,353.14,647.33,353.27 C642.31,354.88,640.53,358.44,639.8,361.5 C639.66,361.92,639.42,361.92,638.93,361.92 C638.44,361.92,638.09,361.92,638.09,361.4 C638.09,361.33,638.44,358.99,640.15,356.59 C640.95,355.4,641.93,354.43,643.08,353.59 H615.08 C614.52,353.59,613.68,353.59,613.68,352.75 C613.68,351.88,614.49,351.88,615.08,351.88 Z " /><path
           id="path7057"
           fill="black"
           stroke-width="0"
           d="M671.16,353.55 L670.99,353.75 L670.82,353.94 L670.67,354.12 L670.52,354.3 L670.38,354.46 L670.24,354.62 L670.11,354.77 L669.98,354.91 L669.86,355.05 L669.74,355.18 L669.62,355.31 L669.51,355.43 L669.4,355.54 L669.3,355.65 L669.19,355.76 L669.09,355.86 L668.89,356.05 L668.7,356.24 L668.5,356.41 L668.31,356.58 L668.1,356.74 L667.89,356.91 L667.78,356.99 L667.66,357.08 L667.54,357.16 L667.42,357.25 C665.3,358.79,663.07,359.38,661.15,359.38 C656.82,359.38,653.68,355.68,653.68,351.5 H654.66 C654.66,354.84,657.38,357.46,660.59,357.46 C663.83,357.46,666.06,354.81,669.41,350.77 H669.41 C668.02,348.5,664.98,344.98,660.73,344.98 C657.14,344.98,654.66,348.15,654.66,351.5 H653.68 C653.68,347.42,656.68,343.65,661.04,343.65 C665.89,343.65,669.27,347.62,670.53,349.47 C672.38,347.31,672.93,346.72,674.26,345.78 C676.39,344.24,678.62,343.65,680.53,343.65 C684.86,343.65,688,347.35,688,351.53 H687.02 C687.02,348.18,684.3,345.57,681.09,345.57 C677.85,345.57,675.62,348.22,672.27,352.27 H672.27 C673.66,354.53,676.7,358.05,680.95,358.05 C684.54,358.05,687.02,354.88,687.02,351.53 H688 C688,355.61,685,359.38,680.64,359.38 C675.79,359.38,672.41,355.4,671.16,353.55 Z " /><path
           id="path7059"
           fill="black"
           stroke-width="0"
           d="M727.25,438.2 L727.24,438.15 L727.23,438.11 L727.21,438.06 L727.2,438.01 L727.18,437.96 L727.17,437.9 L727.15,437.85 L727.14,437.8 L727.11,437.68 L727.08,437.57 L727.05,437.46 L727.03,437.35 L727.01,437.3 L727,437.24 L726.99,437.19 L726.98,437.14 L726.97,437.1 L726.96,437.05 L726.95,437.01 L726.94,436.97 L726.93,436.93 L726.93,436.9 L726.92,436.87 L726.92,436.84 L726.91,436.81 L726.91,436.79 L726.91,436.79 L726.91,436.78 L726.91,436.77 L726.91,436.77 C726.91,436,727.53,435.65,728.09,435.65 C728.72,435.65,729.28,436.11,729.45,436.42 C729.62,436.73,729.9,437.85,730.08,438.58 C730.25,439.24,730.64,440.85,730.84,441.72 C731.05,442.48,731.27,443.25,731.44,444.05 C731.82,445.48,731.89,445.76,732.9,447.19 C733.88,448.59,735.52,450.4,738.13,450.4 C740.16,450.4,740.19,448.62,740.19,447.96 C740.19,445.87,738.69,442,738.13,440.53 C737.75,439.56,737.61,439.24,737.61,438.65 C737.61,436.8,739.15,435.65,740.92,435.65 C744.41,435.65,745.95,440.46,745.95,440.98 C745.95,441.44,745.49,441.44,745.39,441.44 C744.9,441.44,744.86,441.23,744.72,440.85 C743.92,438.06,742.42,436.63,741.03,436.63 C740.3,436.63,740.16,437.12,740.16,437.85 C740.16,438.65,740.33,439.1,740.96,440.67 C741.38,441.75,742.8,445.45,742.8,447.4 C742.8,450.79,740.12,451.38,738.27,451.38 C735.38,451.38,733.43,449.6,732.38,448.2 C732.14,450.61,730.08,451.38,728.65,451.38 C727.15,451.38,726.35,450.3,725.9,449.5 C725.13,448.2,724.64,446.21,724.64,446.04 C724.64,445.59,725.13,445.59,725.23,445.59 C725.72,445.59,725.75,445.7,726,446.64 C726.52,448.69,727.18,450.4,728.54,450.4 C729.45,450.4,729.7,449.63,729.7,448.69 C729.7,448.03,729.38,446.74,729.14,445.8 C728.9,444.86,728.54,443.43,728.37,442.66 Z " /><path
           id="path7061"
           fill="black"
           stroke-width="0"
           d="M762.06,351.26 L768.09,367.2 H766.84 C764.9,362.02,759.62,358.63,753.9,357.14 C752.85,356.89,747.97,355.59,738.4,355.59 H708.36 L733.72,385.33 C734.07,385.73,734.17,385.88,734.17,386.13 C734.17,386.23,734.17,386.38,733.82,386.88 L710.6,418.61 H737.9 C744.58,418.61,749.11,417.91,749.56,417.81 C752.25,417.41,756.59,416.57,760.52,414.07 C761.77,413.28,765.15,411.04,766.84,407 H768.09 L762.06,421 H703.18 C702.04,421,701.99,420.95,701.84,420.65 C701.79,420.5,701.79,419.55,701.79,419.01 L728.14,382.94 L702.34,352.71 C701.84,352.11,701.84,351.86,701.84,351.81 C701.84,351.26,702.29,351.26,703.18,351.26 Z " /><path
           id="path7063"
           fill="black"
           stroke-width="0"
           d="M709.91,337.15 L709.92,337.16 L709.92,337.16 L709.92,337.16 L709.92,337.17 L709.92,337.18 L709.93,337.18 L709.93,337.19 L709.93,337.19 L709.93,337.21 L709.94,337.23 L709.95,337.25 L709.95,337.26 L709.96,337.28 L709.96,337.31 L709.97,337.33 L709.97,337.35 L709.98,337.37 L709.99,337.4 L710,337.44 L710.01,337.49 L710.01,337.52 L710.02,337.54 L710.02,337.56 L710.03,337.58 L710.03,337.6 L710.04,337.62 L710.04,337.64 L710.04,337.65 L710.05,337.66 L710.05,337.67 L710.05,337.67 L710.05,337.68 L710.05,337.69 L710.05,337.69 L710.05,337.7 L710.05,337.7 L710.05,337.7 L710.05,337.71 L710.05,337.71 L710.05,337.71 C710.05,337.89,709.91,338.2,709.5,338.2 C708.8,338.2,705.9,337.92,705.03,337.85 C704.75,337.82,704.27,337.78,704.27,337.05 C704.27,336.56,704.75,336.56,705.17,336.56 C706.84,336.56,706.84,336.32,706.84,336.04 C706.84,335.79,706.78,335.58,706.71,335.27 L701.79,315.54 C701.61,314.91,701.61,314.84,701.61,314.77 C701.61,314.24,702.03,313.65,702.8,313.65 C703.74,313.65,704.2,314.35,704.41,315.12 C704.47,315.25,705.97,321.39,706.11,321.88 C708.59,321.64,710.58,320.84,710.58,319.02 C710.58,318.85,710.58,318.67,710.51,318.32 C710.37,317.8,710.37,317.62,710.37,317.24 C710.37,314.77,712.39,313.65,714.06,313.65 C717.45,313.65,718.49,318.95,718.49,318.98 C718.49,319.44,718.04,319.44,717.93,319.44 C717.45,319.44,717.41,319.27,717.24,318.6 C716.82,317.1,715.88,314.63,714.17,314.63 C713.23,314.63,712.95,315.5,712.95,316.44 C712.95,317.04,712.95,317.1,713.16,318.01 C713.19,318.11,713.33,318.71,713.33,319.09 C713.33,322.2,709.15,322.68,707.68,322.79 C708.7,323.41,709.98,324.57,710.58,325.09 C712.35,326.76,714.1,328.4,716.05,328.4 C716.47,328.4,716.92,328.3,717.2,327.95 C715.7,327.7,715.39,326.52,715.39,326 C715.39,325.23,715.98,324.7,716.78,324.7 C717.73,324.7,718.77,325.47,718.77,326.94 C718.77,328.09,717.93,329.38,716.09,329.38 C714.1,329.38,712.28,327.95,710.51,326.31 C709.04,324.91,707.89,323.83,706.46,323.24 Z " /><path
           id="path7065"
           fill="black"
           stroke-width="0"
           d="M747.78,325.71 L747.83,325.72 L747.88,325.72 L747.93,325.72 L747.99,325.72 L748.1,325.72 L748.15,325.72 L748.21,325.73 L748.26,325.73 L748.32,325.74 L748.37,325.75 L748.43,325.76 L748.48,325.77 L748.54,325.79 L748.59,325.8 L748.64,325.82 L748.69,325.85 L748.73,325.87 L748.78,325.9 L748.82,325.93 L748.86,325.96 L748.9,326 L748.94,326.04 L748.96,326.06 L748.97,326.08 L748.99,326.11 L749,326.13 L749.01,326.16 L749.03,326.18 L749.04,326.21 L749.05,326.24 L749.06,326.27 L749.07,326.3 L749.08,326.33 L749.08,326.36 L749.09,326.4 L749.1,326.43 L749.1,326.47 L749.1,326.51 L749.1,326.55 L749.1,326.59 C749.1,327.43,748.27,327.43,747.81,327.43 H724.73 C724.28,327.43,723.44,327.43,723.44,326.59 C723.44,325.71,724.24,325.71,724.77,325.71 Z " /><path
           id="path7067"
           fill="black"
           stroke-width="0"
           d="M747.81,318.04 L747.86,318.04 L747.9,318.04 L747.95,318.04 L748,318.04 L748.05,318.05 L748.1,318.05 L748.15,318.05 L748.21,318.06 L748.26,318.06 L748.32,318.07 L748.37,318.08 L748.42,318.09 L748.48,318.1 L748.53,318.11 L748.58,318.13 L748.63,318.15 L748.68,318.17 L748.73,318.19 L748.77,318.22 L748.82,318.25 L748.86,318.28 L748.9,318.32 L748.93,318.35 L748.95,318.38 L748.97,318.4 L748.98,318.42 L749,318.44 L749.01,318.47 L749.02,318.49 L749.04,318.52 L749.05,318.55 L749.06,318.58 L749.07,318.61 L749.08,318.64 L749.08,318.67 L749.09,318.7 L749.1,318.74 L749.1,318.77 L749.1,318.81 L749.1,318.84 L749.1,318.88 C749.1,319.75,748.3,319.75,747.78,319.75 H724.77 C724.24,319.75,723.44,319.75,723.44,318.88 C723.44,318.04,724.28,318.04,724.73,318.04 Z " /><path
           id="path7069"
           fill="black"
           stroke-width="0"
           d="M762.68,336.18 L762.68,336.22 L762.68,336.26 L762.68,336.3 L762.68,336.34 L762.68,336.38 L762.68,336.42 L762.68,336.45 L762.68,336.49 L762.67,336.52 L762.67,336.55 L762.67,336.59 L762.67,336.62 L762.66,336.64 L762.66,336.67 L762.66,336.7 L762.65,336.73 L762.65,336.75 L762.65,336.77 L762.63,336.82 L762.62,336.86 L762.61,336.9 L762.59,336.93 L762.57,336.96 L762.55,336.99 L762.52,337.02 L762.5,337.04 L762.47,337.06 L762.43,337.08 L762.4,337.09 L762.36,337.1 L762.31,337.12 L762.26,337.12 L762.24,337.13 L762.21,337.13 L762.18,337.14 L762.16,337.14 L762.13,337.14 L762.1,337.14 L762.06,337.14 L762.03,337.15 L762,337.15 L761.96,337.15 L761.93,337.15 L761.89,337.15 L761.85,337.15 L761.81,337.15 L761.77,337.15 L761.73,337.15 L761.68,337.15 L761.64,337.15 C759.4,334.96,756.23,334.92,754.8,334.92 V333.67 C755.64,333.67,757.94,333.67,759.85,334.64 V316.86 C759.85,315.71,759.85,315.25,756.37,315.25 H755.04 V314 H767.49 V315.25 H766.17 C762.68,315.25,762.68,315.71,762.68,316.86 Z " /><path
           id="path7071"
           fill="black"
           stroke-width="0"
           d="M812.65,438.88 L812.65,438.93 L812.64,438.99 L812.64,439.04 L812.64,439.09 L812.64,439.14 L812.64,439.19 L812.64,439.23 L812.64,439.28 L812.64,439.32 L812.64,439.36 L812.64,439.4 L812.64,439.44 L812.64,439.48 L812.63,439.52 L812.63,439.55 L812.63,439.59 L812.62,439.62 L812.62,439.65 L812.61,439.71 L812.6,439.76 L812.58,439.81 L812.57,439.86 L812.55,439.9 L812.53,439.94 L812.5,439.98 L812.47,440.01 L812.44,440.03 L812.41,440.06 L812.37,440.08 L812.32,440.1 L812.3,440.11 L812.27,440.12 L812.25,440.12 L812.22,440.13 L812.19,440.14 L812.16,440.14 L812.13,440.15 L812.1,440.15 L812.07,440.16 L812.03,440.16 L811.99,440.16 L811.96,440.16 L811.92,440.17 L811.88,440.17 L811.84,440.17 L811.79,440.17 L811.75,440.17 L811.7,440.17 L811.65,440.18 L811.6,440.18 L811.55,440.18 L811.5,440.18 C808.41,436.99,804.03,436.99,802.43,436.99 V435.44 C803.43,435.44,806.37,435.44,808.96,436.74 V410.93 C808.96,409.14,808.81,408.54,804.33,408.54 H802.73 V407 H818.87 V408.54 H817.28 C812.79,408.54,812.65,409.09,812.65,410.93 Z " /><polyline
           id="polyline7073"
           fill-rule="nonzero"
           fill="black"
           stroke-width="0"
           points="786,385 835.92,385 835.92,387.04 786,387.04 " /><path
           id="path7075"
           fill="black"
           stroke-width="0"
           d="M800.3,374.02 L800.3,374.03 L800.3,374.03 L800.3,374.04 L800.3,374.05 L800.3,374.06 L800.29,374.07 L800.29,374.09 L800.29,374.11 L800.29,374.13 L800.28,374.15 L800.28,374.17 L800.27,374.19 L800.26,374.22 L800.25,374.24 L800.24,374.27 L800.23,374.29 L800.22,374.31 L800.2,374.34 L800.18,374.36 L800.16,374.39 L800.14,374.41 L800.13,374.42 L800.11,374.43 L800.1,374.44 L800.09,374.45 L800.07,374.46 L800.06,374.47 L800.04,374.48 L800.02,374.49 L800.01,374.5 L799.99,374.51 L799.97,374.52 L799.95,374.52 L799.93,374.53 L799.91,374.54 L799.89,374.54 L799.86,374.55 L799.84,374.55 L799.81,374.56 L799.79,374.56 L799.76,374.56 L799.74,374.57 L799.71,374.57 L799.68,374.57 L799.65,374.57 C798.5,374.57,794.87,374.17,793.57,374.07 C793.17,374.02,792.62,373.97,792.62,373.07 C792.62,372.48,793.07,372.48,793.82,372.48 C796.21,372.48,796.31,372.13,796.31,371.63 L796.16,370.64 L788.94,341.94 C788.74,341.25,788.74,341.14,788.74,340.85 C788.74,339.7,789.73,339.45,790.18,339.45 C790.83,339.45,791.58,339.9,791.88,340.5 C792.13,340.95,794.37,350.16,794.67,351.41 C796.36,351.26,800.45,350.46,800.45,347.17 C800.45,346.82,800.45,346.62,800.3,346.13 C800.2,345.53,800.1,344.93,800.1,344.38 C800.1,341.45,802.09,339.45,804.68,339.45 C806.18,339.45,807.52,340.25,808.61,342.09 C809.86,344.29,810.41,347.02,810.41,347.12 C810.41,347.62,809.96,347.62,809.81,347.62 C809.31,347.62,809.26,347.42,809.11,346.73 C808.12,343.09,806.97,340.55,804.78,340.55 C803.83,340.55,803.18,341.1,803.18,342.89 C803.18,343.73,803.39,344.88,803.59,345.68 C803.78,346.53,803.78,346.73,803.78,347.22 C803.78,350.46,800.65,351.91,796.41,352.45 C797.96,353.35,799.55,354.95,800.7,356.14 C803.09,358.78,805.38,360.92,807.82,360.92 C808.12,360.92,808.17,360.92,808.27,360.87 C808.86,360.77,808.91,360.77,809.31,360.47 C809.41,360.42,809.41,360.38,809.51,360.27 C807.12,360.12,806.67,358.18,806.67,357.59 C806.67,356.79,807.22,355.84,808.57,355.84 C809.86,355.84,811.3,356.94,811.3,358.88 C811.3,360.38,810.16,362.02,807.92,362.02 C806.52,362.02,804.23,361.62,800.65,357.63 C798.95,355.74,797.01,353.75,795.12,353 Z " /><path
           id="path7077"
           fill="black"
           stroke-width="0"
           d="M830.61,360.35 H829.42 C829.32,359.58,828.97,357.52,828.52,357.17 C828.24,356.96,825.55,356.96,825.07,356.96 H818.65 C822.31,360.21,823.53,361.18,825.62,362.82 C828.2,364.88,830.61,367.04,830.61,370.36 C830.61,374.57,826.91,377.15,822.45,377.15 C818.12,377.15,815.2,374.12,815.2,370.91 C815.2,369.13,816.7,368.96,817.04,368.96 C817.88,368.96,818.9,369.55,818.9,370.81 C818.9,371.43,818.65,372.66,816.84,372.66 C817.92,375.13,820.29,375.9,821.93,375.9 C825.41,375.9,827.23,373.18,827.23,370.36 C827.23,367.32,825.07,364.91,823.95,363.66 L815.55,355.36 C815.2,355.05,815.2,354.98,815.2,354 H829.56 Z " /></g>    </g>
  </g>
</svg>
